<svg width="24" height="24" viewBox="0 0 24 24" fill="none" xmlns="http://www.w3.org/2000/svg">
<path d="M20.7101 19.29L17.31 15.9C18.407 14.5025 19.0023 12.7767 19.0001 11C19.0001 9.41775 18.5309 7.87103 17.6518 6.55544C16.7728 5.23985 15.5233 4.21447 14.0615 3.60897C12.5997 3.00347 10.9912 2.84504 9.4393 3.15372C7.88745 3.4624 6.46198 4.22433 5.34316 5.34315C4.22433 6.46197 3.4624 7.88743 3.15372 9.43928C2.84504 10.9911 3.00347 12.5997 3.60897 14.0615C4.21447 15.5233 5.23986 16.7727 6.55545 17.6518C7.87105 18.5308 9.41777 19 11 19C12.7767 19.0022 14.5025 18.407 15.9 17.31L19.2901 20.71C19.383 20.8037 19.4936 20.8781 19.6155 20.9289C19.7373 20.9797 19.868 21.0058 20.0001 21.0058C20.1321 21.0058 20.2628 20.9797 20.3846 20.9289C20.5065 20.8781 20.6171 20.8037 20.7101 20.71C20.8038 20.617 20.8782 20.5064 20.929 20.3846C20.9797 20.2627 21.0059 20.132 21.0059 20C21.0059 19.868 20.9797 19.7373 20.929 19.6154C20.8782 19.4936 20.8038 19.383 20.7101 19.29ZM5.00001 11C5.00001 9.81331 5.35191 8.65328 6.0112 7.66658C6.67049 6.67989 7.60756 5.91085 8.70392 5.45673C9.80028 5.0026 11.0067 4.88378 12.1706 5.11529C13.3345 5.3468 14.4036 5.91825 15.2427 6.75736C16.0818 7.59648 16.6532 8.66558 16.8848 9.82946C17.1163 10.9933 16.9975 12.1997 16.5433 13.2961C16.0892 14.3925 15.3202 15.3295 14.3335 15.9888C13.3468 16.6481 12.1867 17 11 17C9.40873 17 7.8826 16.3679 6.75738 15.2426C5.63215 14.1174 5.00001 12.5913 5.00001 11Z" fill="#FEC600"/>
</svg>
