<svg width="45" height="45" viewBox="0 0 45 45" fill="none" xmlns="http://www.w3.org/2000/svg">
<path d="M22.5 0C10.0838 0 0 10.0836 0 22.5C0 34.916 10.0838 45 22.5 45C34.9162 45 45 34.916 45 22.5C45 10.0836 34.9161 0 22.5 0ZM22.5 1.6875C33.9808 1.6875 43.2562 11.0191 43.2562 22.5C43.2562 33.9806 33.9808 43.2562 22.5 43.2562C11.0192 43.2562 1.74375 33.9806 1.74375 22.5C1.74375 11.0191 11.0192 1.6875 22.5 1.6875ZM22.5 10.8C21.0195 10.8 19.8 12.0195 19.8 13.5C19.8 13.9984 19.9538 14.4472 20.1938 14.85C17.879 15.781 16.2667 18.0556 16.2563 20.7C16.2562 20.7 16.2 23.3413 16.2 25.3125C16.2 25.2135 16.2197 25.3743 16.0875 25.5938C15.9553 25.813 15.7344 26.077 15.525 26.325C15.1062 26.8209 14.6812 27.225 14.6812 27.225C14.5426 27.3472 14.4449 27.5092 14.4015 27.6889C14.3581 27.8686 14.3711 28.0573 14.4387 28.2293C14.5063 28.4014 14.6252 28.5485 14.7793 28.6506C14.9334 28.7527 15.1152 28.8048 15.3 28.8H18.9562C18.9597 29.893 19.4058 30.9761 20.3062 31.6687C21.5486 32.6245 23.2961 32.6775 24.5812 31.7812C25.5599 31.0976 26.0972 29.9518 26.1 28.8H29.7C29.8729 28.7934 30.0403 28.7371 30.182 28.6378C30.3238 28.5385 30.4339 28.4004 30.4992 28.2402C30.5645 28.0799 30.5822 27.9042 30.5502 27.7341C30.5182 27.5641 30.4378 27.4068 30.3187 27.2812C30.3187 27.2812 29.9405 26.8784 29.5312 26.3812C29.3266 26.1325 29.0983 25.8133 28.9688 25.5938C28.8392 25.374 28.8 25.2151 28.8 25.3125C28.8 23.659 28.8562 20.7 28.8562 20.7C28.8687 18.0333 27.2056 15.7705 24.8625 14.85C25.0975 14.4502 25.2 13.9928 25.2 13.5C25.2 12.0195 23.9805 10.8 22.5 10.8ZM22.5 12.6C23.0077 12.6 23.4 12.9922 23.4 13.5C23.4 14.0076 23.0077 14.4 22.5 14.4C21.9923 14.4 21.6 14.0076 21.6 13.5C21.6 12.9922 21.9923 12.6 22.5 12.6ZM22.5562 16.2C25.0648 16.2 27.068 18.1964 27.0562 20.7C27.0562 20.7 27 23.645 27 25.3125C27 25.8392 27.2448 26.2021 27.45 26.55C27.5502 26.7192 27.6728 26.8416 27.7875 27H17.2687C17.3839 26.8452 17.5054 26.7172 17.6062 26.55C17.8168 26.2008 18 25.8457 18 25.3125C18 23.3527 18.0562 20.7 18.0562 20.7C18.0662 18.1872 20.0477 16.2 22.5562 16.2ZM20.7 28.8H24.3C24.2999 29.3776 24.062 29.918 23.5687 30.2625C22.9216 30.7143 22.0568 30.6861 21.4312 30.2062C20.9769 29.8569 20.6994 29.3468 20.7 28.8Z" fill="#FEC600"/>
</svg>
