<svg width="30" height="30" viewBox="0 0 30 30" fill="none" xmlns="http://www.w3.org/2000/svg">
<path d="M22.5 3.75C21.837 3.75 21.2011 4.01339 20.7322 4.48223C20.2634 4.95107 20 5.58696 20 6.25C20 6.91304 20.2634 7.54893 20.7322 8.01777C21.2011 8.48661 21.837 8.75 22.5 8.75C23.163 8.75 23.7989 8.48661 24.2678 8.01777C24.7366 7.54893 25 6.91304 25 6.25C25 5.58696 24.7366 4.95107 24.2678 4.48223C23.7989 4.01339 23.163 3.75 22.5 3.75ZM22.5 5C22.8315 5 23.1495 5.1317 23.3839 5.36612C23.6183 5.60054 23.75 5.91848 23.75 6.25C23.75 6.58152 23.6183 6.89946 23.3839 7.13388C23.1495 7.3683 22.8315 7.5 22.5 7.5C22.1685 7.5 21.8505 7.3683 21.6161 7.13388C21.3817 6.89946 21.25 6.58152 21.25 6.25C21.25 5.91848 21.3817 5.60054 21.6161 5.36612C21.8505 5.1317 22.1685 5 22.5 5ZM22.5 18.375C22.5 22.7242 19.1421 26.25 15 26.25C10.8579 26.25 7.5 22.7242 7.5 18.375C7.5 14.0258 15 3.75 15 3.75C15 3.75 22.5 14.0258 22.5 18.375Z" fill="#FEAA00"/>
</svg>
