<svg width="40" height="40" viewBox="0 0 40 40" fill="none" xmlns="http://www.w3.org/2000/svg">
<path fill-rule="evenodd" clip-rule="evenodd" d="M29.1667 17.3334H10.8333C6.23083 17.3334 2.5 13.6026 2.5 9.00008C2.5 4.39758 6.23083 0.666748 10.8333 0.666748H29.1667C33.7683 0.666748 37.5 4.39758 37.5 9.00008C37.5 13.6026 33.7683 17.3334 29.1667 17.3334ZM29.1667 2.33341H10.8333C7.15167 2.33341 4.16667 5.31841 4.16667 9.00008C4.16667 12.6817 7.15167 15.6667 10.8333 15.6667H29.1667C32.8483 15.6667 35.8333 12.6817 35.8333 9.00008C35.8333 5.31841 32.8483 2.33341 29.1667 2.33341ZM10.8333 14.0001C8.0725 14.0001 5.83333 11.7617 5.83333 9.00008C5.83333 6.23925 8.0725 4.00008 10.8333 4.00008C13.5942 4.00008 15.8333 6.23925 15.8333 9.00008C15.8333 11.7617 13.5942 14.0001 10.8333 14.0001ZM10.8333 5.66675C8.9925 5.66675 7.5 7.15925 7.5 9.00008C7.5 10.8409 8.9925 12.3334 10.8333 12.3334C12.6742 12.3334 14.1667 10.8409 14.1667 9.00008C14.1667 7.15925 12.6742 5.66675 10.8333 5.66675ZM10.8333 20.6667H29.1667C33.7683 20.6667 37.5 24.3984 37.5 29.0001C37.5 33.6017 33.7683 37.3334 29.1667 37.3334H10.8333C6.23083 37.3334 2.5 33.6017 2.5 29.0001C2.5 24.3984 6.23083 20.6667 10.8333 20.6667ZM10.8333 35.6667H29.1667C32.8483 35.6667 35.8333 32.6817 35.8333 29.0001C35.8333 25.3184 32.8483 22.3334 29.1667 22.3334H10.8333C7.15167 22.3334 4.16667 25.3184 4.16667 29.0001C4.16667 32.6817 7.15167 35.6667 10.8333 35.6667ZM29.1667 24.0001C31.9275 24.0001 34.1667 26.2392 34.1667 29.0001C34.1667 31.7609 31.9275 34.0001 29.1667 34.0001C26.4058 34.0001 24.1667 31.7609 24.1667 29.0001C24.1667 26.2392 26.4058 24.0001 29.1667 24.0001ZM29.1667 32.3334C31.0075 32.3334 32.5 30.8409 32.5 29.0001C32.5 27.1592 31.0075 25.6667 29.1667 25.6667C27.3258 25.6667 25.8333 27.1592 25.8333 29.0001C25.8333 30.8409 27.3258 32.3334 29.1667 32.3334Z" fill="black"/>
</svg>
