<svg width="40" height="40" viewBox="0 0 40 40" fill="none" xmlns="http://www.w3.org/2000/svg">
<path d="M34.3499 31.9834C35.3944 30.5833 36.1111 28.9666 36.4473 27.2525C36.7835 25.5383 36.7304 23.7706 36.2921 22.0797C35.8538 20.3888 35.0414 18.8179 33.9148 17.483C32.7883 16.148 31.3763 15.0831 29.7832 14.3668C29.4362 12.3703 28.6387 10.4791 27.4512 8.83704C26.2638 7.19496 24.7177 5.84514 22.9304 4.89014C21.1431 3.93514 19.1617 3.40009 17.1366 3.32565C15.1116 3.25121 13.0962 3.63933 11.2436 4.46052C9.39101 5.28172 7.74998 6.51438 6.44519 8.06484C5.1404 9.61531 4.20618 11.4428 3.71352 13.4084C3.22086 15.374 3.18272 17.4261 3.60199 19.4087C4.02127 21.3913 4.88693 23.2522 6.1332 24.8501L3.81653 27.1501C3.58527 27.3845 3.42861 27.6821 3.36632 28.0054C3.30403 28.3287 3.3389 28.6632 3.46653 28.9668C3.59156 29.2711 3.80389 29.5317 4.07676 29.7156C4.34963 29.8994 4.67082 29.9984 4.99986 30.0001H14.4832C15.4276 31.9911 16.9166 33.6739 18.7778 34.8537C20.639 36.0336 22.7962 36.6622 24.9999 36.6668H34.9999C35.3289 36.6651 35.6501 36.5661 35.923 36.3822C36.1958 36.1983 36.4082 35.9378 36.5332 35.6334C36.6608 35.3299 36.6957 34.9954 36.6334 34.6721C36.5711 34.3487 36.4145 34.0511 36.1832 33.8168L34.3499 31.9834ZM13.3332 25.0001C13.3355 25.5582 13.3801 26.1154 13.4665 26.6668H9.01653L9.59986 26.1001C9.75608 25.9452 9.88007 25.7608 9.96468 25.5577C10.0493 25.3546 10.0929 25.1368 10.0929 24.9168C10.0929 24.6967 10.0493 24.4789 9.96468 24.2758C9.88007 24.0727 9.75608 23.8884 9.59986 23.7334C8.66579 22.8096 7.92528 21.7088 7.42162 20.4955C6.91796 19.2821 6.66126 17.9805 6.66653 16.6668C6.66653 14.0146 7.7201 11.4711 9.59546 9.59569C11.4708 7.72032 14.0144 6.66675 16.6665 6.66675C18.736 6.65432 20.7573 7.29073 22.4464 8.48653C24.1355 9.68233 25.4073 11.3774 26.0832 13.3334C25.7165 13.3334 25.3665 13.3334 24.9999 13.3334C21.9057 13.3334 18.9382 14.5626 16.7503 16.7505C14.5624 18.9384 13.3332 21.9059 13.3332 25.0001ZM30.8999 33.3334L30.9832 33.4168H24.9999C23.0721 33.4133 21.2051 32.7416 19.7171 31.5161C18.229 30.2906 17.2118 28.587 16.8389 26.6957C16.4659 24.8043 16.7602 22.8422 17.6717 21.1435C18.5831 19.4448 20.0553 18.1146 21.8375 17.3796C23.6196 16.6446 25.6015 16.5502 27.4454 17.1125C29.2894 17.6748 30.8813 18.859 31.9501 20.4633C33.0189 22.0677 33.4984 23.993 33.3069 25.9113C33.1154 27.8295 32.2647 29.622 30.8999 30.9834C30.5858 31.2911 30.4061 31.7105 30.3999 32.1501C30.4008 32.3706 30.4454 32.5887 30.5313 32.7919C30.6171 32.995 30.7424 33.1791 30.8999 33.3334Z" fill="black"/>
</svg>
