<svg width="50" height="50" viewBox="0 0 50 50" fill="none" xmlns="http://www.w3.org/2000/svg">
<path d="M24.9997 45.8333C22.8134 45.8333 20.6825 45.1454 18.9089 43.8671C17.1353 42.5888 15.8089 40.7848 15.1176 38.7107C14.4262 36.6366 14.4049 34.3976 15.0568 32.3108C15.7087 30.2239 17.0007 28.3951 18.7497 27.0833V10.4167C18.7497 8.75906 19.4082 7.16935 20.5803 5.99725C21.7524 4.82515 23.3421 4.16667 24.9997 4.16667C26.6573 4.16667 28.247 4.82515 29.4191 5.99725C30.5912 7.16935 31.2497 8.75906 31.2497 10.4167V27.0833C32.9987 28.3951 34.2906 30.2239 34.9425 32.3108C35.5944 34.3976 35.5732 36.6366 34.8818 38.7107C34.1904 40.7848 32.864 42.5888 31.0904 43.8671C29.3168 45.1454 27.186 45.8333 24.9997 45.8333ZM27.083 19.875V10.4167C27.0874 10.1483 27.0359 9.88191 26.9319 9.63446C26.8279 9.387 26.6736 9.16385 26.4788 8.97917C26.2876 8.77854 26.0583 8.61808 25.8043 8.50719C25.5504 8.39629 25.2768 8.33719 24.9997 8.33333C24.4471 8.33333 23.9172 8.55283 23.5265 8.94353C23.1358 9.33423 22.9163 9.86413 22.9163 10.4167V19.875H27.083Z" fill="#FEAA00"/>
</svg>
