<svg width="50" height="50" viewBox="0 0 50 50" fill="none" xmlns="http://www.w3.org/2000/svg">
<path d="M46.758 27.9297C46.1721 25.7031 44.7268 23.8281 42.6955 22.6562C40.8205 21.5625 37.383 21.25 34.219 21.2109C35.1955 19.8828 35.7033 18.3594 35.7033 16.7969C35.7033 13.9453 33.9846 11.4063 31.3674 9.84375C31.4455 8.90625 31.8361 8.04687 32.5002 7.38281C33.2424 6.64062 34.219 6.25 35.2736 6.25C36.3283 6.25 37.3049 6.64062 38.0471 7.38281C38.3596 7.69531 38.8283 7.69531 39.1408 7.38281C39.4533 7.07031 39.4533 6.60156 39.1408 6.28906C38.1252 5.27344 36.719 4.6875 35.2736 4.6875C33.8283 4.6875 32.4221 5.27344 31.4065 6.28906C30.6252 7.07031 30.1174 8.04687 29.9221 9.14062C28.5158 8.55469 26.9143 8.20312 25.1955 8.20312C23.4768 8.20312 21.8752 8.55469 20.469 9.14062C20.2736 8.08594 19.7658 7.10938 18.9846 6.28906C17.969 5.27344 16.5627 4.6875 15.1174 4.6875C13.6721 4.6875 12.2658 5.27344 11.2502 6.28906C10.9377 6.60156 10.9377 7.07031 11.2502 7.38281C11.5627 7.69531 12.0315 7.69531 12.344 7.38281C13.0861 6.64062 14.0627 6.25 15.1174 6.25C16.1721 6.25 17.1486 6.64062 17.8908 7.38281C18.5549 8.04687 18.9455 8.90625 19.0236 9.84375C16.4065 11.4063 14.6877 13.9453 14.6877 16.7969C14.6877 18.3594 15.1955 19.8828 16.1721 21.2109C14.1018 21.2109 11.9143 21.3281 10.0393 21.7188C9.60958 21.7969 9.33615 22.2266 9.41427 22.6562C9.4924 23.0859 9.92208 23.3594 10.3518 23.2812C13.9846 22.5391 19.3752 22.8516 21.4846 23.0078C20.4299 26.9141 17.8518 34.8828 15.1955 36.4062C13.5549 37.3438 11.6408 37.6172 9.76583 37.1094C7.9299 36.6016 6.40646 35.4297 5.4299 33.7891C4.02365 31.3672 4.1799 28.3594 5.78146 26.0938C6.01583 25.7422 5.93771 25.2734 5.58615 25C5.23458 24.7656 4.76583 24.8438 4.4924 25.1953C2.50021 27.9688 2.34396 31.6406 4.02365 34.6094C5.19552 36.6016 7.07052 38.0469 9.29708 38.6719C10.0393 38.8672 10.8205 38.9844 11.5627 38.9844C13.0861 38.9844 14.5705 38.5938 15.8986 37.8125C15.9768 37.7734 16.0549 37.6953 16.133 37.6562C18.0471 42.4609 21.4065 45.4297 25.1174 45.4297C28.7502 45.4297 32.1096 42.5391 34.0236 37.8516C35.3518 38.5938 36.7971 38.9844 38.2815 38.9844C39.0236 38.9844 39.8049 38.8672 40.5471 38.6719C42.7736 38.0859 44.6486 36.6406 45.8205 34.6094C47.0705 32.5391 47.383 30.1953 46.758 27.9297ZM18.2424 21.25C16.9143 20 16.2111 18.4375 16.2111 16.7969C16.2111 12.9297 20.2346 9.76562 25.1955 9.76562C30.1565 9.76562 34.1799 12.9297 34.1799 16.7969C34.1799 18.3984 33.4768 19.9609 32.1486 21.2109C29.6096 21.2891 27.6565 21.4844 27.4611 21.4844C27.2268 21.5234 27.0315 21.6406 26.9143 21.7969C26.7971 21.9922 26.758 22.2266 26.7971 22.4219C26.8361 22.6172 26.9533 23.0469 27.1096 23.6328C25.7424 23.8672 24.2971 23.8281 22.9299 23.5547C23.0861 23.0078 23.1643 22.6172 23.2424 22.4219C23.2815 22.1875 23.2424 21.9531 23.1252 21.7969C23.008 21.6016 22.7736 21.4844 22.5783 21.4844C22.383 21.4844 20.5861 21.2891 18.2424 21.25ZM32.1877 35.9766C30.0002 36.7188 27.6174 37.1094 25.1955 37.1094C22.6565 37.1094 20.1955 36.6797 17.8908 35.8594C18.5549 34.9609 19.1799 33.8281 19.7658 32.6172C21.5236 33.0078 23.3596 33.2031 25.2346 33.2031C26.9533 33.2031 28.6721 33.0469 30.3518 32.6953C30.8596 33.9062 31.5236 35.0391 32.1877 35.9766ZM21.2502 28.9453C21.758 27.5391 22.1877 26.2109 22.5002 25.1172C23.3596 25.3125 24.2971 25.3906 25.1955 25.3906C25.9768 25.3906 26.758 25.3125 27.5393 25.1953C27.8518 26.2891 28.2815 27.6172 28.7893 29.0234C26.2893 29.4141 23.7111 29.375 21.2502 28.9453ZM25.1955 43.75C23.0861 43.75 21.133 42.5391 19.5315 40.3906C21.3674 40.8203 23.2424 41.0156 25.1955 41.0156C27.1096 41.0156 29.0236 40.8203 30.8596 40.3906C29.258 42.5391 27.2658 43.75 25.1955 43.75ZM44.5315 33.75C43.594 35.3906 42.0315 36.5625 40.1955 37.0703C38.3596 37.5781 36.4455 37.3047 34.7658 36.3672C32.1486 34.8438 29.5705 26.875 28.5158 22.9688C32.0315 22.6953 39.258 22.4609 41.9143 24.0234C43.5549 24.9609 44.7268 26.5234 45.2346 28.3594C45.7424 30.1953 45.508 32.1094 44.5315 33.75Z" fill="#FEAA00"/>
<path d="M7.0705 24.4921C7.22675 24.4921 7.383 24.4531 7.50018 24.3359C7.65643 24.2187 7.85175 24.1015 8.04706 23.9843C8.43769 23.7499 8.55487 23.2812 8.3205 22.9296C8.08612 22.539 7.61737 22.4218 7.26581 22.6562C7.03143 22.7734 6.83612 22.9296 6.60175 23.0859C6.25018 23.3202 6.17206 23.8281 6.40643 24.1796C6.60175 24.3749 6.83612 24.4921 7.0705 24.4921Z" fill="#FEAA00"/>
</svg>
