<svg width="70" height="70" viewBox="0 0 70 70" fill="none" xmlns="http://www.w3.org/2000/svg">
<path d="M18.0118 30.7267C18.1415 30.7267 18.2776 30.6943 18.4072 30.623C18.7961 30.4091 18.9387 29.9165 18.7183 29.5211L16.5146 25.548L18.7183 21.6526C18.9387 21.2637 18.8026 20.7711 18.4137 20.5508C18.0248 20.3304 17.5322 20.4665 17.3118 20.8554L14.8877 25.1397C14.7516 25.386 14.7451 25.6841 14.8877 25.9304L17.3053 30.3054C17.4544 30.5711 17.7266 30.7267 18.0118 30.7267Z" fill="#FEAA00"/>
<path d="M10.195 42.6984L15.0496 51.0271C15.1922 51.2734 15.458 51.429 15.7496 51.429H25.3746C25.6663 51.429 25.932 51.2734 26.0746 51.0206L30.6117 43.0938H39.3811L43.9181 51.0206C44.0607 51.2734 44.333 51.429 44.6181 51.429H54.3274C54.6191 51.429 54.8848 51.2734 55.0274 51.0206L59.7978 42.6919C59.9404 42.4456 59.9404 42.1345 59.7978 41.8882L55.2543 33.9549L59.7978 25.9438C59.9404 25.6975 59.9404 25.3929 59.7978 25.1401L55.0274 16.8114C54.8848 16.5586 54.6126 16.4031 54.3274 16.4031H45.0978L40.5607 8.4762C40.4181 8.22343 40.1459 8.06787 39.8607 8.06787H30.145C29.8533 8.06787 29.5876 8.22343 29.445 8.4762L24.908 16.4031H15.7496C15.4644 16.4031 15.1987 16.5586 15.0496 16.8049L10.195 25.1336C10.0524 25.3864 10.0459 25.691 10.195 25.9438L14.8163 33.9484L10.2015 41.8753C10.0459 42.1345 10.0459 42.4457 10.195 42.6984ZM30.6181 26.3586H39.3811L41.2348 29.6253L43.6913 33.9614L39.407 41.441L39.3811 41.4799H30.6181L30.0218 40.4364L26.308 33.9549L28.7255 29.6966L30.6181 26.3586ZM53.8672 49.8151H45.0978L40.7876 42.2901L45.0459 34.8493L45.0913 34.7651H53.8607L58.1709 42.2901L53.8672 49.8151ZM58.1774 25.5484L53.8607 33.1512H45.0978L43.2441 29.8845L40.7876 25.5484L45.0718 18.0623L45.0978 18.0234H53.8672L58.1774 25.5484ZM30.6181 9.69472H39.3876L43.6913 17.2132L39.4265 24.654L39.3811 24.7382H30.6181L29.6589 23.066L26.308 17.2132L30.6181 9.69472ZM16.2098 18.0234H24.9015L25.4978 19.0669L29.2117 25.5484L26.7941 29.8068L24.895 33.1512H16.2098L11.8218 25.5484L16.2098 18.0234ZM16.2098 34.7716H24.9015L25.8607 36.4438L29.2117 42.2966L24.9015 49.8151H16.2098L11.8283 42.2901L16.2098 34.7716Z" fill="#FEAA00"/>
<path d="M18.4846 38.8157H23.0281C23.4753 38.8157 23.8382 38.4528 23.8382 38.0056C23.8382 37.5583 23.4753 37.1954 23.0281 37.1954H18.0114C17.7197 37.1954 17.454 37.3509 17.3049 37.6037L14.8809 41.888C14.6605 42.2769 14.7966 42.7694 15.1855 42.9898C15.3086 43.0611 15.4512 43.0935 15.5809 43.0935C15.866 43.0935 16.1383 42.9444 16.2873 42.6852L18.4846 38.8157ZM32.491 13.7389H37.041L39.316 17.6278C39.4651 17.887 39.7373 18.0296 40.016 18.0296C40.1521 18.0296 40.2947 17.9972 40.4243 17.9194C40.8067 17.6926 40.9429 17.2 40.716 16.8111L38.2077 12.5269C38.0651 12.2806 37.7993 12.125 37.5077 12.125H32.491C32.0438 12.125 31.6808 12.488 31.6808 12.9352C31.6808 13.3824 32.0438 13.7389 32.491 13.7389ZM34.3836 45.4074C33.8651 46.0102 29.3345 51.3833 29.3345 54.2676C29.3345 57.3917 31.8753 59.9324 34.9993 59.9324C38.1234 59.9324 40.6642 57.3917 40.6642 54.2676C40.6642 51.3833 36.1336 46.0102 35.6151 45.4074C35.304 45.0444 34.6947 45.0444 34.3836 45.4074ZM34.9993 58.3056C32.7697 58.3056 30.9549 56.4907 30.9549 54.2611C30.9549 52.725 33.2299 49.387 34.9993 47.1963C36.7688 49.387 39.0438 52.7185 39.0438 54.2611C39.0438 56.4907 37.229 58.3056 34.9993 58.3056Z" fill="#FEAA00"/>
</svg>
