<svg width="30" height="30" viewBox="0 0 30 30" fill="none" xmlns="http://www.w3.org/2000/svg">
<path d="M15 27.5C13.6882 27.5 12.4097 27.0872 11.3456 26.3202C10.2814 25.5532 9.48555 24.4708 9.07073 23.2264C8.65591 21.9819 8.64316 20.6385 9.03429 19.3864C9.42542 18.1343 10.2006 17.037 11.25 16.25V6.24995C11.25 5.25539 11.6451 4.30157 12.3483 3.5983C13.0516 2.89504 14.0054 2.49995 15 2.49995C15.9946 2.49995 16.9484 2.89504 17.6517 3.5983C18.3549 4.30157 18.75 5.25539 18.75 6.24995V16.25C19.7994 17.037 20.5746 18.1343 20.9657 19.3864C21.3568 20.6385 21.3441 21.9819 20.9293 23.2264C20.5145 24.4708 19.7186 25.5532 18.6544 26.3202C17.5903 27.0872 16.3118 27.5 15 27.5ZM16.25 11.925V6.24995C16.2526 6.08892 16.2217 5.9291 16.1593 5.78063C16.0969 5.63215 16.0044 5.49827 15.8875 5.38745C15.7728 5.26708 15.6352 5.1708 15.4828 5.10427C15.3304 5.03773 15.1663 5.00227 15 4.99995C14.6685 4.99995 14.3505 5.13165 14.1161 5.36607C13.8817 5.60049 13.75 5.91843 13.75 6.24995V11.925H16.25Z" fill="#FEAA00"/>
</svg>
