<svg width="40" height="40" viewBox="0 0 40 40" fill="none" xmlns="http://www.w3.org/2000/svg">
<path d="M19.9997 31.6667C20.3293 31.6667 20.6515 31.569 20.9256 31.3859C21.1997 31.2027 21.4133 30.9424 21.5395 30.6379C21.6656 30.3333 21.6986 29.9982 21.6343 29.6749C21.57 29.3516 21.4113 29.0547 21.1782 28.8216C20.9451 28.5885 20.6481 28.4297 20.3248 28.3654C20.0015 28.3011 19.6664 28.3341 19.3619 28.4603C19.0573 28.5864 18.797 28.8 18.6139 29.0741C18.4308 29.3482 18.333 29.6704 18.333 30.0001C18.333 30.4421 18.5086 30.866 18.8212 31.1786C19.1337 31.4912 19.5576 31.6667 19.9997 31.6667ZM28.333 31.6667C28.6626 31.6667 28.9849 31.569 29.259 31.3859C29.533 31.2027 29.7467 30.9424 29.8728 30.6379C29.999 30.3333 30.032 29.9982 29.9677 29.6749C29.9033 29.3516 29.7446 29.0547 29.5115 28.8216C29.2784 28.5885 28.9815 28.4297 28.6582 28.3654C28.3349 28.3011 27.9997 28.3341 27.6952 28.4603C27.3907 28.5864 27.1304 28.8 26.9472 29.0741C26.7641 29.3482 26.6663 29.6704 26.6663 30.0001C26.6663 30.4421 26.8419 30.866 27.1545 31.1786C27.4671 31.4912 27.891 31.6667 28.333 31.6667ZM28.333 25.0001C28.6626 25.0001 28.9849 24.9023 29.259 24.7192C29.533 24.5361 29.7467 24.2758 29.8728 23.9712C29.999 23.6667 30.032 23.3316 29.9677 23.0083C29.9033 22.685 29.7446 22.388 29.5115 22.1549C29.2784 21.9218 28.9815 21.7631 28.6582 21.6988C28.3349 21.6345 27.9997 21.6675 27.6952 21.7936C27.3907 21.9198 27.1304 22.1334 26.9472 22.4075C26.7641 22.6815 26.6663 23.0038 26.6663 23.3334C26.6663 23.7754 26.8419 24.1994 27.1545 24.5119C27.4671 24.8245 27.891 25.0001 28.333 25.0001ZM19.9997 25.0001C20.3293 25.0001 20.6515 24.9023 20.9256 24.7192C21.1997 24.5361 21.4133 24.2758 21.5395 23.9712C21.6656 23.6667 21.6986 23.3316 21.6343 23.0083C21.57 22.685 21.4113 22.388 21.1782 22.1549C20.9451 21.9218 20.6481 21.7631 20.3248 21.6988C20.0015 21.6345 19.6664 21.6675 19.3619 21.7936C19.0573 21.9198 18.797 22.1334 18.6139 22.4075C18.4308 22.6815 18.333 23.0038 18.333 23.3334C18.333 23.7754 18.5086 24.1994 18.8212 24.5119C19.1337 24.8245 19.5576 25.0001 19.9997 25.0001ZM31.6663 5.00008H29.9997V3.33341C29.9997 2.89139 29.8241 2.46746 29.5115 2.1549C29.199 1.84234 28.775 1.66675 28.333 1.66675C27.891 1.66675 27.4671 1.84234 27.1545 2.1549C26.8419 2.46746 26.6663 2.89139 26.6663 3.33341V5.00008H13.333V3.33341C13.333 2.89139 13.1574 2.46746 12.8449 2.1549C12.5323 1.84234 12.1084 1.66675 11.6663 1.66675C11.2243 1.66675 10.8004 1.84234 10.4878 2.1549C10.1753 2.46746 9.99967 2.89139 9.99967 3.33341V5.00008H8.33301C7.00693 5.00008 5.73516 5.52687 4.79747 6.46455C3.85979 7.40223 3.33301 8.674 3.33301 10.0001V33.3334C3.33301 34.6595 3.85979 35.9313 4.79747 36.8689C5.73516 37.8066 7.00693 38.3334 8.33301 38.3334H31.6663C32.9924 38.3334 34.2642 37.8066 35.2019 36.8689C36.1396 35.9313 36.6663 34.6595 36.6663 33.3334V10.0001C36.6663 8.674 36.1396 7.40223 35.2019 6.46455C34.2642 5.52687 32.9924 5.00008 31.6663 5.00008ZM33.333 33.3334C33.333 33.7754 33.1574 34.1994 32.8449 34.5119C32.5323 34.8245 32.1084 35.0001 31.6663 35.0001H8.33301C7.89098 35.0001 7.46706 34.8245 7.1545 34.5119C6.84194 34.1994 6.66634 33.7754 6.66634 33.3334V18.3334H33.333V33.3334ZM33.333 15.0001H6.66634V10.0001C6.66634 9.55805 6.84194 9.13413 7.1545 8.82157C7.46706 8.50901 7.89098 8.33341 8.33301 8.33341H9.99967V10.0001C9.99967 10.4421 10.1753 10.866 10.4878 11.1786C10.8004 11.4912 11.2243 11.6667 11.6663 11.6667C12.1084 11.6667 12.5323 11.4912 12.8449 11.1786C13.1574 10.866 13.333 10.4421 13.333 10.0001V8.33341H26.6663V10.0001C26.6663 10.4421 26.8419 10.866 27.1545 11.1786C27.4671 11.4912 27.891 11.6667 28.333 11.6667C28.775 11.6667 29.199 11.4912 29.5115 11.1786C29.8241 10.866 29.9997 10.4421 29.9997 10.0001V8.33341H31.6663C32.1084 8.33341 32.5323 8.50901 32.8449 8.82157C33.1574 9.13413 33.333 9.55805 33.333 10.0001V15.0001ZM11.6663 25.0001C11.996 25.0001 12.3182 24.9023 12.5923 24.7192C12.8664 24.5361 13.08 24.2758 13.2061 23.9712C13.3323 23.6667 13.3653 23.3316 13.301 23.0083C13.2367 22.685 13.0779 22.388 12.8449 22.1549C12.6118 21.9218 12.3148 21.7631 11.9915 21.6988C11.6682 21.6345 11.3331 21.6675 11.0285 21.7936C10.724 21.9198 10.4637 22.1334 10.2806 22.4075C10.0974 22.6815 9.99967 23.0038 9.99967 23.3334C9.99967 23.7754 10.1753 24.1994 10.4878 24.5119C10.8004 24.8245 11.2243 25.0001 11.6663 25.0001ZM11.6663 31.6667C11.996 31.6667 12.3182 31.569 12.5923 31.3859C12.8664 31.2027 13.08 30.9424 13.2061 30.6379C13.3323 30.3333 13.3653 29.9982 13.301 29.6749C13.2367 29.3516 13.0779 29.0547 12.8449 28.8216C12.6118 28.5885 12.3148 28.4297 11.9915 28.3654C11.6682 28.3011 11.3331 28.3341 11.0285 28.4603C10.724 28.5864 10.4637 28.8 10.2806 29.0741C10.0974 29.3482 9.99967 29.6704 9.99967 30.0001C9.99967 30.4421 10.1753 30.866 10.4878 31.1786C10.8004 31.4912 11.2243 31.6667 11.6663 31.6667Z" fill="black"/>
</svg>
