<svg width="40" height="40" viewBox="0 0 40 40" fill="none" xmlns="http://www.w3.org/2000/svg">
<path d="M19.9997 31.6667C20.3293 31.6667 20.6515 31.5689 20.9256 31.3858C21.1997 31.2027 21.4133 30.9424 21.5395 30.6378C21.6656 30.3333 21.6986 29.9982 21.6343 29.6749C21.57 29.3516 21.4113 29.0546 21.1782 28.8215C20.9451 28.5884 20.6481 28.4297 20.3248 28.3654C20.0015 28.3011 19.6664 28.3341 19.3619 28.4602C19.0573 28.5864 18.797 28.8 18.6139 29.0741C18.4308 29.3481 18.333 29.6704 18.333 30C18.333 30.442 18.5086 30.866 18.8212 31.1785C19.1337 31.4911 19.5576 31.6667 19.9997 31.6667ZM28.333 31.6667C28.6626 31.6667 28.9849 31.5689 29.259 31.3858C29.533 31.2027 29.7467 30.9424 29.8728 30.6378C29.999 30.3333 30.032 29.9982 29.9677 29.6749C29.9033 29.3516 29.7446 29.0546 29.5115 28.8215C29.2784 28.5884 28.9815 28.4297 28.6582 28.3654C28.3349 28.3011 27.9997 28.3341 27.6952 28.4602C27.3907 28.5864 27.1304 28.8 26.9472 29.0741C26.7641 29.3481 26.6663 29.6704 26.6663 30C26.6663 30.442 26.8419 30.866 27.1545 31.1785C27.4671 31.4911 27.891 31.6667 28.333 31.6667ZM28.333 25C28.6626 25 28.9849 24.9023 29.259 24.7191C29.533 24.536 29.7467 24.2757 29.8728 23.9711C29.999 23.6666 30.032 23.3315 29.9677 23.0082C29.9033 22.6849 29.7446 22.3879 29.5115 22.1548C29.2784 21.9217 28.9815 21.763 28.6582 21.6987C28.3349 21.6344 27.9997 21.6674 27.6952 21.7935C27.3907 21.9197 27.1304 22.1333 26.9472 22.4074C26.7641 22.6815 26.6663 23.0037 26.6663 23.3333C26.6663 23.7754 26.8419 24.1993 27.1545 24.5119C27.4671 24.8244 27.891 25 28.333 25ZM19.9997 25C20.3293 25 20.6515 24.9023 20.9256 24.7191C21.1997 24.536 21.4133 24.2757 21.5395 23.9711C21.6656 23.6666 21.6986 23.3315 21.6343 23.0082C21.57 22.6849 21.4113 22.3879 21.1782 22.1548C20.9451 21.9217 20.6481 21.763 20.3248 21.6987C20.0015 21.6344 19.6664 21.6674 19.3619 21.7935C19.0573 21.9197 18.797 22.1333 18.6139 22.4074C18.4308 22.6815 18.333 23.0037 18.333 23.3333C18.333 23.7754 18.5086 24.1993 18.8212 24.5119C19.1337 24.8244 19.5576 25 19.9997 25ZM31.6663 5.00001H29.9997V3.33334C29.9997 2.89131 29.8241 2.46739 29.5115 2.15483C29.199 1.84227 28.775 1.66668 28.333 1.66668C27.891 1.66668 27.4671 1.84227 27.1545 2.15483C26.8419 2.46739 26.6663 2.89131 26.6663 3.33334V5.00001H13.333V3.33334C13.333 2.89131 13.1574 2.46739 12.8449 2.15483C12.5323 1.84227 12.1084 1.66668 11.6663 1.66668C11.2243 1.66668 10.8004 1.84227 10.4878 2.15483C10.1753 2.46739 9.99967 2.89131 9.99967 3.33334V5.00001H8.33301C7.00693 5.00001 5.73516 5.52679 4.79747 6.46447C3.85979 7.40216 3.33301 8.67393 3.33301 10V33.3333C3.33301 34.6594 3.85979 35.9312 4.79747 36.8689C5.73516 37.8066 7.00693 38.3333 8.33301 38.3333H31.6663C32.9924 38.3333 34.2642 37.8066 35.2019 36.8689C36.1396 35.9312 36.6663 34.6594 36.6663 33.3333V10C36.6663 8.67393 36.1396 7.40216 35.2019 6.46447C34.2642 5.52679 32.9924 5.00001 31.6663 5.00001ZM33.333 33.3333C33.333 33.7754 33.1574 34.1993 32.8449 34.5119C32.5323 34.8244 32.1084 35 31.6663 35H8.33301C7.89098 35 7.46706 34.8244 7.1545 34.5119C6.84194 34.1993 6.66634 33.7754 6.66634 33.3333V18.3333H33.333V33.3333ZM33.333 15H6.66634V10C6.66634 9.55798 6.84194 9.13406 7.1545 8.8215C7.46706 8.50894 7.89098 8.33334 8.33301 8.33334H9.99967V10C9.99967 10.442 10.1753 10.866 10.4878 11.1785C10.8004 11.4911 11.2243 11.6667 11.6663 11.6667C12.1084 11.6667 12.5323 11.4911 12.8449 11.1785C13.1574 10.866 13.333 10.442 13.333 10V8.33334H26.6663V10C26.6663 10.442 26.8419 10.866 27.1545 11.1785C27.4671 11.4911 27.891 11.6667 28.333 11.6667C28.775 11.6667 29.199 11.4911 29.5115 11.1785C29.8241 10.866 29.9997 10.442 29.9997 10V8.33334H31.6663C32.1084 8.33334 32.5323 8.50894 32.8449 8.8215C33.1574 9.13406 33.333 9.55798 33.333 10V15ZM11.6663 25C11.996 25 12.3182 24.9023 12.5923 24.7191C12.8664 24.536 13.08 24.2757 13.2061 23.9711C13.3323 23.6666 13.3653 23.3315 13.301 23.0082C13.2367 22.6849 13.0779 22.3879 12.8449 22.1548C12.6118 21.9217 12.3148 21.763 11.9915 21.6987C11.6682 21.6344 11.3331 21.6674 11.0285 21.7935C10.724 21.9197 10.4637 22.1333 10.2806 22.4074C10.0974 22.6815 9.99967 23.0037 9.99967 23.3333C9.99967 23.7754 10.1753 24.1993 10.4878 24.5119C10.8004 24.8244 11.2243 25 11.6663 25ZM11.6663 31.6667C11.996 31.6667 12.3182 31.5689 12.5923 31.3858C12.8664 31.2027 13.08 30.9424 13.2061 30.6378C13.3323 30.3333 13.3653 29.9982 13.301 29.6749C13.2367 29.3516 13.0779 29.0546 12.8449 28.8215C12.6118 28.5884 12.3148 28.4297 11.9915 28.3654C11.6682 28.3011 11.3331 28.3341 11.0285 28.4602C10.724 28.5864 10.4637 28.8 10.2806 29.0741C10.0974 29.3481 9.99967 29.6704 9.99967 30C9.99967 30.442 10.1753 30.866 10.4878 31.1785C10.8004 31.4911 11.2243 31.6667 11.6663 31.6667Z" fill="#B3AFB2"/>
</svg>
