<svg width="85" height="85" viewBox="0 0 85 85" fill="none" xmlns="http://www.w3.org/2000/svg">
<path d="M30.1355 33.0872C29.8197 33.164 29.5313 33.3266 29.3018 33.5573L18.9274 43.9773C18.708 44.1976 18.5503 44.4721 18.4701 44.7733C18.3899 45.0745 18.3902 45.3918 18.4708 45.6932L22.2894 59.9475C22.3702 60.2492 22.5285 60.5243 22.7486 60.7453C22.9686 60.9664 23.2426 61.1254 23.543 61.2065L37.7361 65.0409C38.0364 65.1221 38.3525 65.1224 38.6527 65.042C38.9529 64.9615 39.2265 64.8031 39.446 64.5826L49.8207 54.164C50.0403 53.9435 50.1981 53.6687 50.2782 53.3673C50.3583 53.0658 50.3579 52.7483 50.277 52.4467L46.4584 38.1924C46.3775 37.891 46.2191 37.6162 45.9991 37.3954C45.7791 37.1747 45.5053 37.0158 45.2051 36.9347L31.0117 33.0991C30.7252 33.021 30.4239 33.0163 30.1355 33.0857V33.0872ZM31.0866 36.7992L43.3056 40.1007L46.5931 52.3721L37.6612 61.3408L25.4425 58.0405L22.1551 45.7691L31.0866 36.7992Z" fill="#FEAA00"/>
<path d="M54.7957 26.4783C54.4799 26.5551 54.1914 26.7177 53.962 26.9485L43.5876 37.3684C43.3681 37.5887 43.2104 37.8632 43.1303 38.1644C43.0501 38.4656 43.0503 38.7829 43.1309 39.0844L46.9496 53.3387C47.0303 53.6403 47.1887 53.9155 47.4087 54.1365C47.6288 54.3575 47.9028 54.5165 48.2031 54.5976L62.3962 58.432C62.6965 58.5132 63.0127 58.5136 63.3128 58.4331C63.613 58.3527 63.8866 58.1942 64.1061 57.9737L74.4809 47.5551C74.7004 47.3346 74.8582 47.0599 74.9383 46.7584C75.0184 46.457 75.018 46.1395 74.9372 45.8378L71.1185 31.5835C71.0376 31.2822 70.8792 31.0073 70.6592 30.7866C70.4392 30.5658 70.1654 30.4069 69.8653 30.3259L55.6719 26.4902C55.3854 26.412 55.0841 26.4075 54.7957 26.4768V26.4783ZM55.7468 30.1903L67.9658 33.4918L71.2532 45.7632L62.3213 54.7319L50.1027 51.4316L46.8152 39.1602L55.7468 30.1903Z" fill="#FEAA00"/>
<path d="M36.7879 8.51075C36.4721 8.58751 36.1836 8.75021 35.9542 8.98093L25.5797 19.4008C25.3603 19.6211 25.2026 19.8957 25.1225 20.1969C25.0423 20.4981 25.0425 20.8153 25.1231 21.1168L28.9418 35.3711C29.0225 35.6727 29.1809 35.9479 29.4009 36.1689C29.621 36.3899 29.895 36.549 30.1953 36.6301L44.3884 40.4645C44.6887 40.5457 45.0049 40.546 45.305 40.4656C45.6052 40.3851 45.8788 40.2267 46.0983 40.0062L56.4731 29.5875C56.6927 29.3671 56.8504 29.0923 56.9305 28.7909C57.0106 28.4894 57.0102 28.1719 56.9293 27.8703L53.1107 13.616C53.0298 13.3146 52.8714 13.0397 52.6514 12.819C52.4314 12.5982 52.1576 12.4393 51.8575 12.3583L37.664 8.52264C37.3775 8.44452 37.0763 8.43992 36.7879 8.50927V8.51075ZM37.7389 12.2227L49.9579 15.5242L53.2454 27.7957L44.3135 36.7643L32.0948 33.4641L28.8074 21.1927L37.7389 12.2227Z" fill="#FEAA00"/>
<path d="M61.4084 1.91239C61.0926 1.98915 60.8041 2.1518 60.5747 2.38252L50.2002 12.8025C49.9808 13.0228 49.8231 13.2973 49.743 13.5985C49.6628 13.8997 49.663 14.217 49.7436 14.5184L53.5622 28.7727C53.643 29.0744 53.8014 29.3495 54.0214 29.5705C54.2415 29.7915 54.5155 29.9506 54.8158 30.0317L69.0089 33.8661C69.3092 33.9472 69.6254 33.9476 69.9256 33.8672C70.2257 33.7867 70.4993 33.6283 70.7188 33.4078L81.0936 22.9892C81.3131 22.7687 81.4709 22.4939 81.551 22.1925C81.6311 21.891 81.6307 21.5735 81.5499 21.2719L77.7312 7.0176C77.6503 6.71623 77.4919 6.44137 77.2719 6.22061C77.0519 5.99985 76.7781 5.84097 76.478 5.75992L62.2845 1.92428C61.9981 1.84616 61.6968 1.84151 61.4084 1.91085V1.91239ZM62.3594 5.62435L74.5785 8.92587L77.8659 21.1973L68.934 30.166L56.7153 26.8657L53.4279 14.5943L62.3594 5.62435ZM48.1608 51.1211C47.8451 51.1978 47.5566 51.3605 47.3271 51.5912L36.9527 62.0111C36.7333 62.2314 36.5756 62.506 36.4954 62.8072C36.4152 63.1084 36.4155 63.4257 36.4961 63.7271L40.3147 77.9814C40.3955 78.283 40.5538 78.5582 40.7739 78.7792C40.9939 79.0002 41.2679 79.1593 41.5683 79.2404L55.7614 83.0747C56.0617 83.1559 56.3778 83.1563 56.678 83.0759C56.9782 82.9954 57.2517 82.837 57.4712 82.6164L67.846 72.1978C68.0656 71.9774 68.2234 71.7026 68.3035 71.4012C68.3836 71.0997 68.3832 70.7822 68.3023 70.4806L64.4837 56.2263C64.4028 55.9249 64.2443 55.65 64.0244 55.4292C63.8044 55.2085 63.5306 55.0496 63.2304 54.9686L49.037 51.1329C48.7505 51.0548 48.4492 51.0502 48.1608 51.1195V51.1211ZM49.1119 54.833L61.3309 58.1345L64.6183 70.4059L55.6865 79.3747L43.4678 76.0744L40.1804 63.8029L49.1119 54.833ZM12.1677 15.1091C11.852 15.1858 11.5635 15.3485 11.334 15.5793L0.95962 25.9992C0.740196 26.2194 0.582477 26.494 0.502327 26.7952C0.422176 27.0964 0.422407 27.4137 0.502991 27.7151L4.32163 41.9694C4.40238 42.2711 4.56075 42.5462 4.78081 42.7672C5.00087 42.9882 5.27486 43.1473 5.57522 43.2284L19.7683 47.0628C20.0686 47.144 20.3848 47.1444 20.6849 47.0639C20.9851 46.9835 21.2587 46.825 21.4782 46.6045L31.8529 36.1858C32.0725 35.9654 32.2303 35.6907 32.3104 35.3892C32.3905 35.0878 32.3901 34.7702 32.3092 34.4686L28.4906 20.2143C28.4097 19.913 28.2513 19.6381 28.0313 19.4173C27.8113 19.1965 27.5375 19.0377 27.2373 18.9566L13.0439 15.121C12.7574 15.0428 12.4561 15.0383 12.1677 15.1076V15.1091ZM13.1188 18.821L25.3378 22.1226L28.6253 34.394L19.6934 43.3627L7.47473 40.0624L4.18728 27.791L13.1188 18.821ZM80.5872 52.5999C80.1593 52.6198 79.753 52.7939 79.4434 53.0901C79.4434 53.0901 77.986 54.4808 76.4434 56.2143C75.672 57.081 74.8742 58.0346 74.2015 58.9856C73.5289 59.9366 72.9528 60.8277 72.6982 61.9399C71.9198 65.3409 73.6911 68.9067 76.9728 69.9204C80.2545 70.9341 83.6325 68.6808 84.4108 65.2798C84.6655 64.1676 84.5467 63.1051 84.3717 61.9072C84.1967 60.7092 83.9107 59.4305 83.6135 58.2405C83.0192 55.8604 82.352 53.8221 82.352 53.8221C82.2318 53.4535 81.9942 53.1345 81.6755 52.9138C81.3568 52.6931 80.9746 52.5828 80.5873 52.5999H80.5872ZM79.8095 57.8222C79.9738 58.403 80.0049 58.4138 80.1755 59.0967C80.4549 60.2154 80.7139 61.405 80.8618 62.417C81.0097 63.429 80.9906 64.3253 80.9531 64.4889C80.5636 66.1911 79.2959 66.9293 78.0185 66.5347C76.741 66.1401 75.7661 64.4328 76.1557 62.7307C76.1932 62.5671 76.5445 61.8188 77.0969 61.0379C77.6492 60.257 78.3744 59.3784 79.0903 58.5738C79.4582 58.1605 79.4718 58.1791 79.8093 57.8222H79.8095ZM9.92603 47.9266C9.56325 47.94 9.2133 48.0643 8.92344 48.2829C8.63358 48.5015 8.41776 48.8037 8.30509 49.1488C8.30509 49.1488 7.6379 51.1871 7.04363 53.5672C6.7465 54.7573 6.46699 56.0359 6.29199 57.2339C6.11697 58.4319 5.99824 59.4943 6.25277 60.6065C7.03114 64.0075 10.4091 66.2607 13.6908 65.2471C16.9725 64.2334 18.7437 60.6676 17.9654 57.2666C17.7108 56.1544 17.1347 55.2633 16.4621 54.3123C15.7894 53.3613 14.9916 52.4077 14.2202 51.541C12.6775 49.8076 11.2202 48.4168 11.2202 48.4168C11.0483 48.2525 10.8452 48.1245 10.6229 48.0403C10.4005 47.9561 10.1636 47.9174 9.92603 47.9266ZM10.8542 53.1489C11.1917 53.5057 11.2053 53.4872 11.5731 53.9005C12.2891 54.705 13.0143 55.5838 13.5666 56.3646C14.1189 57.1455 14.4704 57.8938 14.5078 58.0574C14.8974 59.7596 13.9159 61.4669 12.6385 61.8614C11.3611 62.256 10.0999 61.5178 9.71034 59.8156C9.6729 59.652 9.65403 58.7557 9.80185 57.7437C9.94969 56.7317 10.2088 55.5486 10.4881 54.4299C10.6593 53.7445 10.6895 53.7313 10.8542 53.1489Z" fill="#FEAA00"/>
</svg>
