<svg width="40" height="40" viewBox="0 0 40 40" fill="none" xmlns="http://www.w3.org/2000/svg">
<path d="M13.2365 3.33487V3.33649C13.1037 3.34446 12.9748 3.38409 12.8605 3.45205L8.73314 5.95683C8.61077 6.03124 8.50965 6.13592 8.43952 6.26079C8.3694 6.38565 8.33263 6.52648 8.33277 6.66969V11.6711C8.33263 11.8143 8.3694 11.9552 8.43952 12.08C8.50965 12.2049 8.61077 12.3096 8.73314 12.384L12.9028 14.8823C13.0329 14.9609 13.1821 15.0025 13.3341 15.0025C13.4862 15.0025 13.6353 14.9609 13.7654 14.8823L17.8863 12.3775C18.0077 12.3048 18.1086 12.2024 18.1795 12.08C18.2504 11.9576 18.289 11.8191 18.2916 11.6776L18.329 6.6762C18.3309 6.53032 18.2945 6.3865 18.2234 6.25912C18.1522 6.13174 18.0489 6.02526 17.9238 5.95032L13.715 3.45205C13.5709 3.36566 13.4042 3.32482 13.2365 3.33487ZM25.7359 3.33487V3.33649C25.6031 3.34446 25.4742 3.38409 25.3599 3.45205L21.2325 5.95683C21.1102 6.03124 21.009 6.13592 20.9389 6.26079C20.8688 6.38565 20.832 6.52648 20.8321 6.66969V11.6711C20.832 11.8143 20.8688 11.9552 20.9389 12.08C21.009 12.2049 21.1102 12.3096 21.2325 12.384L25.4022 14.8823C25.5323 14.9609 25.6815 15.0025 25.8335 15.0025C25.9856 15.0025 26.1347 14.9609 26.2648 14.8823L30.3857 12.3775C30.5071 12.3048 30.608 12.2024 30.6789 12.08C30.7498 11.9576 30.7884 11.8191 30.791 11.6776L30.8284 6.6762C30.8303 6.53032 30.7938 6.3865 30.7227 6.25912C30.6516 6.13174 30.5483 6.02526 30.4231 5.95032L26.2144 3.45205C26.0703 3.36566 25.9035 3.32482 25.7359 3.33487ZM8.23511 14.1678C8.10168 14.1782 7.97272 14.2206 7.85916 14.2915L3.73176 16.7881C3.60946 16.8629 3.50851 16.9679 3.43866 17.093C3.36882 17.2182 3.33243 17.3593 3.33301 17.5026V22.504C3.33338 22.6477 3.37089 22.7888 3.4419 22.9137C3.51291 23.0386 3.615 23.1431 3.73827 23.2169L7.9031 25.7135C8.03301 25.7919 8.18186 25.8333 8.33358 25.8333C8.4853 25.8333 8.63414 25.7919 8.76406 25.7135L12.8849 23.2104C13.0069 23.1378 13.1083 23.0352 13.1795 22.9125C13.2507 22.7897 13.2893 22.6508 13.2918 22.5089L13.3276 17.5091C13.3295 17.3632 13.2931 17.2194 13.222 17.092C13.1509 16.9646 13.0476 16.8582 12.9224 16.7832L8.71523 14.2849C8.57072 14.1982 8.40332 14.1574 8.23511 14.1678ZM19.9045 14.1678C19.7688 14.1772 19.6375 14.2196 19.522 14.2915L15.4011 16.7881C15.2773 16.8619 15.1747 16.9664 15.1034 17.0917C15.0321 17.2169 14.9945 17.3585 14.9942 17.5026V22.504C14.9948 22.6479 15.0325 22.7891 15.1038 22.914C15.1751 23.0389 15.2775 23.1433 15.4011 23.2169L19.5708 25.7135C19.7002 25.791 19.8481 25.8319 19.9988 25.8319C20.1496 25.8319 20.2975 25.791 20.4269 25.7135L24.5543 23.2104C24.675 23.137 24.7751 23.0341 24.8451 22.9114C24.9152 22.7887 24.9529 22.6502 24.9547 22.5089L24.997 17.5091C24.9989 17.3632 24.9624 17.2194 24.8913 17.092C24.8202 16.9646 24.7169 16.8582 24.5917 16.7832L20.3829 14.2849C20.2389 14.1986 20.0721 14.1577 19.9045 14.1678ZM31.5673 14.1678C31.4338 14.1782 31.3049 14.2206 31.1913 14.2915L27.0639 16.7881C26.9413 16.8627 26.8401 16.9676 26.7699 17.0928C26.6998 17.2179 26.6631 17.3591 26.6636 17.5026V22.504C26.6641 22.6479 26.7018 22.7891 26.7731 22.914C26.8444 23.0389 26.9469 23.1433 27.0704 23.2169L31.2336 25.7135C31.3637 25.7922 31.5129 25.8338 31.6649 25.8338C31.817 25.8338 31.9661 25.7922 32.0962 25.7135L36.2236 23.2104C36.344 23.1368 36.4438 23.0338 36.5135 22.9111C36.5833 22.7884 36.6207 22.65 36.6224 22.5089L36.6663 17.5091C36.6675 17.3626 36.6301 17.2183 36.5578 17.0909C36.4855 16.9635 36.3809 16.8573 36.2545 16.7832L32.0458 14.2849C31.9017 14.1986 31.7349 14.1577 31.5673 14.1678ZM13.3211 24.999C13.2929 24.9981 13.2647 24.9987 13.2365 25.0007C13.1031 25.0111 12.9741 25.0535 12.8605 25.1244L8.73314 27.621C8.61054 27.6956 8.50927 27.8005 8.43913 27.9257C8.36898 28.0508 8.33235 28.192 8.33277 28.3355V33.3353C8.33235 33.4788 8.36898 33.6199 8.43913 33.7451C8.50927 33.8703 8.61054 33.9752 8.73314 34.0498L12.9028 36.5464C13.0329 36.6251 13.1821 36.6667 13.3341 36.6667C13.4862 36.6667 13.6353 36.6251 13.7654 36.5464L17.8863 34.0498C18.0089 33.9764 18.1105 33.8727 18.1815 33.7488C18.2525 33.6248 18.2904 33.4846 18.2916 33.3418L18.329 28.3404C18.3309 28.1945 18.2945 28.0507 18.2234 27.9233C18.1522 27.7959 18.0489 27.6894 17.9238 27.6145L13.715 25.1178C13.5957 25.046 13.4603 25.0051 13.3211 24.999ZM25.8205 24.999C25.7923 24.9981 25.764 24.9987 25.7359 25.0007C25.6024 25.0111 25.4735 25.0535 25.3599 25.1244L21.2325 27.621C21.1099 27.6956 21.0086 27.8005 20.9385 27.9257C20.8684 28.0508 20.8317 28.192 20.8321 28.3355V33.3353C20.8317 33.4788 20.8684 33.6199 20.9385 33.7451C21.0086 33.8703 21.1099 33.9752 21.2325 34.0498L25.4022 36.5464C25.5323 36.6251 25.6815 36.6667 25.8335 36.6667C25.9856 36.6667 26.1347 36.6251 26.2648 36.5464L30.3857 34.0498C30.5083 33.9764 30.6099 33.8727 30.6809 33.7488C30.7518 33.6248 30.7897 33.4846 30.791 33.3418L30.8284 28.3404C30.8303 28.1945 30.7938 28.0507 30.7227 27.9233C30.6516 27.7959 30.5483 27.6894 30.4231 27.6145L26.2144 25.1178C26.0951 25.046 25.9596 25.0051 25.8205 24.999Z" fill="black"/>
</svg>
