<svg width="30" height="30" viewBox="0 0 30 30" fill="none" xmlns="http://www.w3.org/2000/svg">
<path d="M26.7188 8.56872L15.4688 2.00622C15.3262 1.92393 15.1646 1.88062 15 1.88062C14.8354 1.88062 14.6738 1.92393 14.5312 2.00622L3.28125 8.56872C3.13956 8.65052 3.02174 8.76798 2.93951 8.90942C2.85727 9.05086 2.81349 9.21136 2.8125 9.37497V26.25C2.8125 26.4986 2.91127 26.7371 3.08709 26.9129C3.2629 27.0887 3.50136 27.1875 3.75 27.1875H12.1875C12.4361 27.1875 12.6746 27.0887 12.8504 26.9129C13.0262 26.7371 13.125 26.4986 13.125 26.25V19.6875H16.875V26.25C16.875 26.4986 16.9738 26.7371 17.1496 26.9129C17.3254 27.0887 17.5639 27.1875 17.8125 27.1875H26.25C26.4986 27.1875 26.7371 27.0887 26.9129 26.9129C27.0887 26.7371 27.1875 26.4986 27.1875 26.25V9.37497C27.1865 9.21136 27.1427 9.05086 27.0605 8.90942C26.9783 8.76798 26.8604 8.65052 26.7188 8.56872ZM25.3125 25.3125H18.75V18.75C18.75 18.5013 18.6512 18.2629 18.4754 18.0871C18.2996 17.9112 18.0611 17.8125 17.8125 17.8125H12.1875C11.9389 17.8125 11.7004 17.9112 11.5246 18.0871C11.3488 18.2629 11.25 18.5013 11.25 18.75V25.3125H4.6875V9.90934L15 3.89997L25.3125 9.90934V25.3125Z" fill="#B3AFB2"/>
</svg>
