<svg width="36" height="29" viewBox="0 0 36 29" fill="none" xmlns="http://www.w3.org/2000/svg">
<path d="M23.8113 11.2696L18.8305 16.2504C18.5322 16.1711 18.2253 16.129 17.9167 16.125C16.9664 16.125 16.0549 16.5025 15.3829 17.1745C14.7109 17.8465 14.3334 18.758 14.3334 19.7083C14.3374 20.0169 14.3795 20.3238 14.4588 20.6221L13.0613 22.0196C12.8934 22.1861 12.7601 22.3843 12.6691 22.6026C12.5782 22.821 12.5313 23.0551 12.5313 23.2917C12.5313 23.5282 12.5782 23.7624 12.6691 23.9807C12.7601 24.199 12.8934 24.3972 13.0613 24.5637C13.2279 24.7317 13.426 24.865 13.6444 24.9559C13.8627 25.0469 14.0969 25.0937 14.3334 25.0937C14.5699 25.0937 14.8041 25.0469 15.0224 24.9559C15.2408 24.865 15.4389 24.7317 15.6055 24.5637L17.003 23.1663C17.3012 23.2456 17.6081 23.2877 17.9167 23.2917C18.8671 23.2917 19.7785 22.9141 20.4505 22.2421C21.1225 21.5701 21.5001 20.6587 21.5001 19.7083C21.4961 19.3997 21.4539 19.0928 21.3746 18.7946L26.3555 13.8137C26.6928 13.4764 26.8824 13.0188 26.8824 12.5417C26.8824 12.0645 26.6928 11.607 26.3555 11.2696C26.0181 10.9322 25.5605 10.7427 25.0834 10.7427C24.6063 10.7427 24.1487 10.9322 23.8113 11.2696ZM17.9167 0C15.5639 0 13.2341 0.463428 11.0603 1.36383C8.88656 2.26422 6.91144 3.58395 5.24773 5.24767C1.8877 8.6077 5.49113e-05 13.1649 5.49113e-05 17.9167C-0.0087683 21.4652 1.04589 24.935 3.02797 27.8783C3.29407 28.2727 3.70595 28.5453 4.17299 28.636C4.64004 28.7267 5.12399 28.6282 5.51839 28.3621C5.91279 28.096 6.18532 27.6841 6.27604 27.2171C6.36677 26.75 6.26824 26.2661 6.00214 25.8717C4.55898 23.7137 3.72902 21.2042 3.60086 18.6113C3.47271 16.0184 4.05118 13.4394 5.27452 11.1496C6.49785 8.85981 8.3201 6.94527 10.5467 5.6104C12.7733 4.27553 15.3206 3.57045 17.9167 3.57045C20.5128 3.57045 23.0601 4.27553 25.2867 5.6104C27.5133 6.94527 29.3356 8.85981 30.5589 11.1496C31.7823 13.4394 32.3607 16.0184 32.2326 18.6113C32.1044 21.2042 31.2745 23.7137 29.8313 25.8717C29.6993 26.0669 29.607 26.2862 29.5599 26.5171C29.5127 26.748 29.5115 26.9859 29.5565 27.2172C29.6014 27.4486 29.6916 27.6688 29.8217 27.8652C29.9519 28.0617 30.1195 28.2305 30.3151 28.3621C30.6116 28.5614 30.9611 28.6675 31.3184 28.6667C31.6119 28.6671 31.901 28.5954 32.1603 28.458C32.4196 28.3205 32.6411 28.1215 32.8055 27.8783C34.7876 24.935 35.8422 21.4652 35.8334 17.9167C35.8334 13.1649 33.9457 8.6077 30.5857 5.24767C27.2257 1.88764 22.6685 0 17.9167 0Z" fill="black"/>
</svg>
